<svg id="Layer_1" data-name="Layer 1" xmlns="http://www.w3.org/2000/svg" xmlns:xlink="http://www.w3.org/1999/xlink" viewBox="0 0 160 60"><defs><style>.cls-1{fill:url(#linear-gradient);}.cls-2{fill:#fff;}</style><linearGradient id="linear-gradient" x1="80" y1="60" x2="80" gradientUnits="userSpaceOnUse"><stop offset="0" stop-color="#fbb03b"/><stop offset="0.5" stop-color="#ffc203"/><stop offset="1" stop-color="#fbb03b"/></linearGradient></defs><title>back_home</title><rect class="cls-1" width="160" height="60" rx="10"/><path class="cls-2" d="M55.63,37.92c-.49,1.31-.84,2.35-1.07,3.13q-10,0-13.46-.12t-5-2.18c-1.33,1.3-2.29,2.26-2.87,2.89l-1.33-3.7,2.35-2V29.39H32.11V26.26h5.43v9.63A6,6,0,0,0,42.31,38l3.6.06Q49.53,38.07,55.63,37.92ZM35.41,18.09q1.77,2.19,3.44,4.56l-2.92,1.93q-1.43-2.26-3.23-4.75Zm19.08,6.13V27a18.61,18.61,0,0,1-3.23,5.42q2.18,1.77,3.85,3.29l-2.3,2.23q-2-1.75-3.8-3.32a20.54,20.54,0,0,1-5.72,3.25,34.52,34.52,0,0,0-1.93-3,18.76,18.76,0,0,0,5-2.45c-1.06-.87-2.1-1.69-3.11-2.47l2.09-2.13c1.19.89,2.32,1.75,3.37,2.59a14.34,14.34,0,0,0,2.3-3.35H43.28A17,17,0,0,1,40,36.68c-.63-.88-1.38-1.86-2.23-2.92q2.3-2.73,2.3-7.85V19.76A101.5,101.5,0,0,0,53.71,18.4l1.42,3a102.82,102.82,0,0,1-11.82,1.12v1.73Z"/><path class="cls-2" d="M57.39,41.45V19.23H78.78v22.2h-3.4v-1H60.78v1Zm18-3.94V22.15H60.78V37.51ZM62.73,24.74H73.41V34.9H62.73Zm7.38,7.34V27.57H66v4.51Z"/><path class="cls-2" d="M80.75,37.51h9.83V33.07H83.26V30h7.32v-4.3H82.12V22.56h9.2a30.13,30.13,0,0,0-1.79-3.09L92.78,18c.72,1,1.43,2.21,2.14,3.49l-2.29,1.07h10.1v3.13H94.16V30h7.48v3.08H94.16v4.44H104v3.18H80.75Z"/><path class="cls-2" d="M113.84,37.11l1.33,2.3L106.55,42a20.29,20.29,0,0,0-1.45-2.54Q108.48,38.61,113.84,37.11Zm-6.46-13.93h6.25c.25-.53.47-1,.66-1.48h-8.9V19h22.69V21.7h-10c-.29.51-.57,1-.86,1.48h9V36.9h-18.8ZM123,25.67H110.61v1.42H123Zm-12.35,5.08H123V29.32H110.61Zm0,3.65H123V33H110.61Zm8.55,2.73c3,.57,5.91,1.17,8.8,1.78l-1,3q-4.06-1.12-8.86-2.26Z"/></svg>