<svg id="Layer_1" data-name="Layer 1" xmlns="http://www.w3.org/2000/svg" xmlns:xlink="http://www.w3.org/1999/xlink" viewBox="0 0 160 60"><defs><style>.cls-1{fill:url(#linear-gradient);}.cls-2{fill:#fff;}</style><linearGradient id="linear-gradient" x1="80" y1="60" x2="80" gradientUnits="userSpaceOnUse"><stop offset="0" stop-color="#fbb03b"/><stop offset="0.5" stop-color="#ffc203"/><stop offset="1" stop-color="#fbb03b"/></linearGradient></defs><title>skip</title><rect class="cls-1" width="160" height="60" rx="10"/><path class="cls-2" d="M78.17,20.48v2.84a13.66,13.66,0,0,1-3,4.3,15.64,15.64,0,0,0,4.07,1c-.34,1-.66,2.06-1,3.23a17,17,0,0,1-5.69-2.29A22.62,22.62,0,0,1,67.12,32H77.76V41.9h-3V40.65h-5V42h-3V32.13l-.41.12c-.28-.71-.59-1.42-.94-2.13V40.41H63V38.65H58.58v1.91H56.12V19.9h9.34v4.8a18.54,18.54,0,0,0,3.9-6.7l3,.46c-.22.7-.46,1.37-.73,2ZM58.58,28.11h1.2v-5.9h-1.2Zm0,8.23h1.2V30.42h-1.2ZM63,22.21H61.8v5.9H63ZM61.8,36.34H63V30.42H61.8Zm5.44-9c-.43-.52-1-1.15-1.78-1.89v3.73a20.75,20.75,0,0,0,4.65-1.59,15.66,15.66,0,0,1-1.56-1.77A17.2,17.2,0,0,1,67.24,27.39Zm7.54,7.53h-5v2.84h5ZM70.17,23.49a10.6,10.6,0,0,0,2.34,2.6,9,9,0,0,0,2.31-2.84H70.3C70.25,23.33,70.21,23.41,70.17,23.49Z"/><path class="cls-2" d="M91.36,38.7q9.24.15,12.52-.05c-.5,1.1-.9,2.06-1.2,2.89q-6.75,0-12-.07-4.8,0-6.81-2.38c-.55.53-1.46,1.5-2.72,2.91l-1.35-3.39c.82-.79,1.6-1.49,2.36-2.1V29.75H80V26.57h5.16V36.73Q86.93,38.7,91.36,38.7Zm-8.5-20.31c1.21,1.47,2.28,2.89,3.23,4.26l-2.77,1.8c-.94-1.56-1.94-3-3-4.43Zm7.32,19.52h-3v-12h1.56v-7h12.4v7h1.73v9q0,3-3.42,2.89c-.8,0-1.64,0-2.52,0a17.87,17.87,0,0,0-.6-2.58,21.16,21.16,0,0,0,2.62.15c.62,0,.94-.36.94-1.11V28.3H90.18Zm1.3-8.67h7.1v5.47H94v1H91.48Zm5.42-6.79V25.9h1.37V21.3H91.65v1.15Zm-2.6,2.07H91.65V25.9H94.3Zm1.78,8.12V31.31H94v1.33Z"/></svg>